<svg width="120" height="56" viewBox="0 0 120 56" fill="none" xmlns="http://www.w3.org/2000/svg">
<rect width="4.28571" height="4.30769" transform="translate(55.7144 21.5385)" fill="white"/>
<rect width="4.28571" height="4.30769" transform="translate(51.4285 21.5385)" fill="white"/>
<rect width="4.28571" height="4.30769" transform="translate(47.1428 21.5385)" fill="white"/>
<rect width="4.28571" height="4.30769" transform="translate(42.8572 21.5385)" fill="white"/>
<rect width="4.28571" height="4.30769" transform="translate(38.5715 21.5385)" fill="white"/>
<rect width="4.28571" height="4.30769" transform="translate(77.1428 21.5385)" fill="white"/>
<g clip-path="url(#clip0_2513_6065)">
<rect width="4.28571" height="4.30769" transform="translate(81.4285 30.1538)" fill="white"/>
<rect width="5" height="5" transform="translate(81.4285 30.1538)" fill="white"/>
</g>
<g clip-path="url(#clip1_2513_6065)">
<rect width="4.28571" height="4.30769" transform="translate(81.4285 25.8462)" fill="white"/>
<rect width="5" height="5" transform="translate(81.4285 25.8462)" fill="white"/>
</g>
<rect width="4.28571" height="4.30769" transform="translate(81.4285 47.3846)" fill="white"/>
<rect width="4.28571" height="4.30769" transform="translate(81.4285 43.0769)" fill="white"/>
<rect width="4.28571" height="4.30769" transform="translate(81.4285 38.7693)" fill="white"/>
<rect width="4.28571" height="4.30769" transform="translate(81.4285 34.4615)" fill="white"/>
<rect width="4.28571" height="4.30769" transform="translate(98.5715 8.61536)" fill="white"/>
<rect width="4.28571" height="4.30769" transform="translate(102.857 8.61536)" fill="white"/>
<rect width="4.28571" height="4.30769" transform="translate(107.143 21.5385)" fill="white"/>
<rect width="4.28571" height="4.30769" transform="translate(107.143 17.2307)" fill="white"/>
<rect width="4.28571" height="4.30769" transform="translate(107.143 12.9231)" fill="white"/>
<rect width="4.28571" height="4.30769" transform="translate(107.143 21.5385)" fill="white"/>
<rect width="4.28571" height="4.30769" transform="translate(107.143 17.2307)" fill="white"/>
<rect width="4.28571" height="4.30769" transform="translate(107.143 12.9231)" fill="white"/>
<rect width="4.28571" height="4.30769" transform="translate(107.143 34.4615)" fill="white"/>
<rect width="4.28571" height="4.30769" transform="translate(107.143 30.1538)" fill="white"/>
<rect width="4.28571" height="4.30769" transform="translate(107.143 25.8462)" fill="white"/>
<rect width="4.28571" height="4.30769" transform="translate(107.143 34.4615)" fill="white"/>
<rect width="4.28571" height="4.30769" transform="translate(107.143 30.1538)" fill="white"/>
<rect width="4.28571" height="4.30769" transform="translate(107.143 25.8462)" fill="white"/>
<rect width="4.28571" height="4.30769" transform="translate(111.428 17.2307)" fill="white"/>
<rect width="4.28571" height="4.30769" transform="translate(115.714 21.5385)" fill="white"/>
<rect width="4.28571" height="4.30769" transform="translate(115.714 25.8462)" fill="white"/>
<rect width="4.28571" height="4.30769" transform="translate(115.714 30.1538)" fill="white"/>
<g clip-path="url(#clip2_2513_6065)">
<rect width="4.28571" height="4.30769" transform="matrix(-1 0 0 1 115.714 25.8462)" fill="#5B2BE5"/>
<g clip-path="url(#clip3_2513_6065)">
<rect width="5" height="5" transform="matrix(-1 0 0 1 115.714 25.8462)" fill="#5B2BE5"/>
<rect width="5" height="5" transform="matrix(-1 0 0 1 115.714 25.8462)" fill="#5B2BE5"/>
</g>
</g>
<g clip-path="url(#clip4_2513_6065)">
<rect width="4.28571" height="4.30769" transform="matrix(-1 0 0 1 115.714 21.5385)" fill="#3F00F3"/>
<g clip-path="url(#clip5_2513_6065)">
<rect width="5" height="5" transform="matrix(-1 0 0 1 115.714 21.5385)" fill="#3F00F3"/>
<rect width="5" height="5" transform="matrix(-1 0 0 1 115.714 21.5385)" fill="#3F00F3"/>
</g>
</g>
<rect width="4.28571" height="4.30769" transform="translate(98.5715 43.0769)" fill="white"/>
<rect width="4.28571" height="4.30769" transform="translate(102.857 43.0769)" fill="white"/>
<rect width="4.28571" height="4.30769" transform="translate(107.143 38.7693)" fill="white"/>
<rect width="4.28571" height="4.30769" transform="translate(111.428 34.4615)" fill="white"/>
<rect width="4.28571" height="4.30769" transform="matrix(-1 0 0 1 115.714 30.1538)" fill="#8F6FF5"/>
<g clip-path="url(#clip6_2513_6065)">
<rect width="4.28571" height="4.30769" transform="matrix(-1 0 0 1 8.57153 25.8462)" fill="#5B2BE5"/>
<rect width="5" height="5" transform="matrix(-1 0 0 1 8.57153 25.8462)" fill="#5B2BE5"/>
</g>
<g clip-path="url(#clip7_2513_6065)">
<rect width="4.28571" height="4.30769" transform="matrix(-1 0 0 1 8.57153 21.5385)" fill="#3F00F3"/>
<g clip-path="url(#clip8_2513_6065)">
<rect width="5" height="5" transform="matrix(-1 0 0 1 8.57153 21.5385)" fill="#3F00F3"/>
<rect width="5" height="5" transform="matrix(-1 0 0 1 8.57153 21.5385)" fill="#3F00F3"/>
</g>
</g>
<rect width="4.28571" height="4.30769" transform="matrix(-1 0 0 1 8.57153 30.1538)" fill="#8F6FF5"/>
<rect width="4.28571" height="4.30769" transform="matrix(-1 0 0 1 8.57153 17.2307)" fill="white"/>
<rect width="4.28571" height="4.30769" transform="matrix(-1 0 0 1 4.28564 21.5385)" fill="white"/>
<rect width="4.28571" height="4.30769" transform="matrix(-1 0 0 1 4.28564 25.8462)" fill="white"/>
<rect width="4.28571" height="4.30769" transform="matrix(-1 0 0 1 4.28564 30.1538)" fill="white"/>
<rect width="4.28571" height="4.30769" transform="matrix(-1 0 0 1 8.57153 34.4615)" fill="white"/>
<rect width="4.28571" height="4.30769" transform="matrix(-1 0 0 1 21.4285 8.61536)" fill="white"/>
<rect width="4.28571" height="4.30769" transform="matrix(-1 0 0 1 17.1428 8.61536)" fill="white"/>
<rect width="4.28571" height="4.30769" transform="matrix(-1 0 0 1 12.8572 12.9231)" fill="white"/>
<rect width="4.28571" height="4.30769" transform="matrix(-1 0 0 1 12.8572 17.2307)" fill="white"/>
<rect width="4.28571" height="4.30769" transform="matrix(-1 0 0 1 12.8572 21.5385)" fill="white"/>
<rect width="4.28571" height="4.30769" transform="matrix(-1 0 0 1 12.8572 25.8462)" fill="white"/>
<rect width="4.28571" height="4.30769" transform="matrix(-1 0 0 1 12.8572 30.1538)" fill="white"/>
<rect width="4.28571" height="4.30769" transform="matrix(-1 0 0 1 12.8572 34.4615)" fill="white"/>
<rect width="4.28571" height="4.30769" transform="matrix(-1 0 0 1 21.4287 43.0769)" fill="white"/>
<rect width="4.28571" height="4.30769" transform="matrix(-1 0 0 1 17.1428 43.0769)" fill="white"/>
<rect width="4.28571" height="4.30769" transform="matrix(-1 0 0 1 12.8572 38.7693)" fill="white"/>
<rect width="4.28571" height="4.30769" transform="translate(21.4285 17.2307)" fill="white"/>
<rect width="4.28571" height="4.30769" transform="translate(21.4285 12.9231)" fill="white"/>
<rect width="4.28571" height="4.30769" transform="translate(21.4285 8.61536)" fill="white"/>
<rect width="4.28571" height="4.30769" transform="translate(21.4285 30.1538)" fill="white"/>
<rect width="4.28571" height="4.30769" transform="translate(21.4285 25.8462)" fill="white"/>
<rect width="4.28571" height="4.30769" transform="translate(21.4285 21.5385)" fill="white"/>
<rect width="4.28571" height="4.30769" transform="translate(21.4285 4.30774)" fill="white"/>
<rect width="4.28571" height="4.30769" transform="translate(21.4285 47.3846)" fill="white"/>
<rect width="4.28571" height="4.30769" transform="translate(25.7144 51.6923)" fill="white"/>
<rect width="4.28571" height="4.30769" transform="translate(25.7144 51.6923)" fill="white"/>
<rect width="4.28571" height="4.30769" transform="translate(30 51.6923)" fill="white"/>
<rect width="4.28571" height="4.30769" transform="translate(85.7144)" fill="white"/>
<rect width="4.28571" height="4.30769" transform="translate(85.7144)" fill="white"/>
<rect width="4.28571" height="4.30769" transform="translate(90)" fill="white"/>
<rect width="4.28571" height="4.30769" transform="translate(85.7144 51.6923)" fill="white"/>
<rect width="4.28571" height="4.30769" transform="translate(85.7144 51.6923)" fill="white"/>
<rect width="4.28571" height="4.30769" transform="translate(90 51.6923)" fill="white"/>
<rect width="4.28571" height="4.30769" transform="translate(30)" fill="white"/>
<rect width="4.28571" height="4.30769" transform="translate(26.5715)" fill="white"/>
<rect width="4.28571" height="4.30769" transform="translate(21.4285 43.0769)" fill="white"/>
<rect width="4.28571" height="4.30769" transform="translate(21.4285 38.7693)" fill="white"/>
<rect width="4.28571" height="4.30769" transform="translate(21.4285 34.4615)" fill="white"/>
<rect width="4.28571" height="4.30769" transform="translate(34.2856 17.2307)" fill="white"/>
<rect width="4.28571" height="4.30769" transform="translate(34.2856 21.5385)" fill="white"/>
<rect width="4.28571" height="4.30769" transform="translate(34.2856 25.8462)" fill="white"/>
<rect width="4.28571" height="4.30769" transform="translate(34.2856 12.9231)" fill="white"/>
<rect width="4.28571" height="4.30769" transform="translate(34.2856 8.61536)" fill="white"/>
<rect width="4.28571" height="4.30769" transform="translate(34.2856 4.30774)" fill="white"/>
<rect width="4.28571" height="4.30769" transform="translate(34.2856 47.3846)" fill="white"/>
<rect width="4.28571" height="4.30769" transform="translate(34.2856 43.0769)" fill="white"/>
<rect width="4.28571" height="4.30769" transform="translate(34.2856 38.7693)" fill="white"/>
<rect width="4.28571" height="4.30769" transform="translate(34.2856 34.4615)" fill="white"/>
<rect width="4.28571" height="4.30769" transform="translate(34.2856 30.1538)" fill="white"/>
<rect width="4.28571" height="4.30769" transform="translate(81.4285 17.2307)" fill="white"/>
<rect width="4.28571" height="4.30769" transform="translate(81.4285 21.5385)" fill="white"/>
<rect width="4.28571" height="4.30769" transform="translate(81.4285 25.8462)" fill="white"/>
<rect width="4.28571" height="4.30769" transform="translate(81.4285 12.9231)" fill="white"/>
<rect width="4.28571" height="4.30769" transform="translate(81.4285 8.61536)" fill="white"/>
<rect width="4.28571" height="4.30769" transform="translate(81.4285 4.30774)" fill="white"/>
<rect width="4.28571" height="4.30769" transform="translate(81.4285 47.3846)" fill="white"/>
<rect width="4.28571" height="4.30769" transform="translate(81.4285 43.0769)" fill="white"/>
<rect width="4.28571" height="4.30769" transform="translate(81.4285 38.7693)" fill="white"/>
<rect width="4.28571" height="4.30769" transform="translate(81.4285 34.4615)" fill="white"/>
<rect width="4.28571" height="4.30769" transform="translate(81.4285 30.1538)" fill="white"/>
<rect width="4.28571" height="4.30769" transform="translate(94.2856 17.2307)" fill="white"/>
<rect width="4.28571" height="4.30769" transform="translate(94.2856 21.5385)" fill="white"/>
<rect width="4.28571" height="4.30769" transform="translate(94.2856 25.8462)" fill="white"/>
<rect width="4.28571" height="4.30769" transform="translate(94.2856 12.9231)" fill="white"/>
<rect width="4.28571" height="4.30769" transform="translate(94.2856 8.61536)" fill="white"/>
<rect width="4.28571" height="4.30769" transform="translate(94.2856 4.30774)" fill="white"/>
<rect width="4.28571" height="4.30769" transform="translate(94.2856 47.3846)" fill="white"/>
<rect width="4.28571" height="4.30769" transform="translate(94.2856 43.0769)" fill="white"/>
<rect width="4.28571" height="4.30769" transform="translate(94.2856 38.7693)" fill="white"/>
<rect width="4.28571" height="4.30769" transform="translate(94.2856 34.4615)" fill="white"/>
<rect width="4.28571" height="4.30769" transform="translate(94.2856 30.1538)" fill="white"/>
<g clip-path="url(#clip9_2513_6065)">
<rect width="4.28571" height="4.30769" transform="matrix(-1 0 0 1 90 30.1538)" fill="#5B2BE5"/>
<g clip-path="url(#clip10_2513_6065)">
<rect width="5" height="5" transform="matrix(-1 0 0 1 90 30.1538)" fill="#5B2BE5"/>
<rect width="5" height="5" transform="matrix(-1 0 0 1 90 30.1538)" fill="#5B2BE5"/>
</g>
</g>
<g clip-path="url(#clip11_2513_6065)">
<rect width="4.28571" height="4.30769" transform="matrix(-1 0 0 1 90 34.4615)" fill="#5B2BE5"/>
<g clip-path="url(#clip12_2513_6065)">
<rect width="5" height="5" transform="matrix(-1 0 0 1 90 34.4615)" fill="#5B2BE5"/>
<rect width="5" height="5" transform="matrix(-1 0 0 1 90 34.4615)" fill="#5B2BE5"/>
</g>
</g>
<g clip-path="url(#clip13_2513_6065)">
<rect width="4.28571" height="4.30769" transform="matrix(-1 0 0 1 94.2856 34.4615)" fill="#5B2BE5"/>
<g clip-path="url(#clip14_2513_6065)">
<rect width="5" height="5" transform="matrix(-1 0 0 1 94.2856 34.4615)" fill="#5B2BE5"/>
<rect width="5" height="5" transform="matrix(-1 0 0 1 94.2856 34.4615)" fill="#5B2BE5"/>
</g>
</g>
<g clip-path="url(#clip15_2513_6065)">
<rect width="4.28571" height="4.30769" transform="matrix(-1 0 0 1 94.2856 30.1538)" fill="#5B2BE5"/>
<g clip-path="url(#clip16_2513_6065)">
<rect width="5" height="5" transform="matrix(-1 0 0 1 94.2856 30.1538)" fill="#5B2BE5"/>
<rect width="5" height="5" transform="matrix(-1 0 0 1 94.2856 30.1538)" fill="#5B2BE5"/>
</g>
</g>
<rect width="4.28571" height="4.30769" transform="translate(72.8572 21.5385)" fill="white"/>
<rect width="4.28571" height="4.30769" transform="translate(68.5715 21.5385)" fill="white"/>
<rect width="4.28571" height="4.30769" transform="translate(64.2856 21.5385)" fill="white"/>
<rect width="4.28571" height="4.30769" transform="translate(60 21.5385)" fill="white"/>
<rect width="4.28571" height="4.30769" transform="translate(55.7144 30.1538)" fill="white"/>
<rect width="4.28571" height="4.30769" transform="translate(51.4285 30.1538)" fill="white"/>
<rect width="4.28571" height="4.30769" transform="translate(47.1428 30.1538)" fill="white"/>
<rect width="4.28571" height="4.30769" transform="translate(42.8572 30.1538)" fill="white"/>
<rect width="4.28571" height="4.30769" transform="translate(38.5715 25.8462)" fill="#9A7DED"/>
<rect width="4.28571" height="4.30769" transform="translate(38.5715 30.1538)" fill="white"/>
<rect width="4.28571" height="4.30769" transform="translate(77.1428 30.1538)" fill="white"/>
<rect width="4.28571" height="4.30769" transform="translate(72.8572 30.1538)" fill="white"/>
<rect width="4.28571" height="4.30769" transform="translate(68.5715 30.1538)" fill="white"/>
<rect width="4.28571" height="4.30769" transform="translate(64.2856 30.1538)" fill="white"/>
<rect width="4.28571" height="4.30769" transform="translate(60 30.1538)" fill="white"/>
<rect width="4.28571" height="4.30769" transform="translate(47.1428 25.8462)" fill="#3F00F3"/>
<rect width="4.28571" height="4.30769" transform="translate(51.4285 25.8462)" fill="#3F00F3"/>
<rect width="4.28571" height="4.30769" transform="translate(55.7144 25.8462)" fill="#3F00F3"/>
<rect width="4.28571" height="4.30769" transform="translate(60 25.8462)" fill="#3F00F3"/>
<rect width="4.28571" height="4.30769" transform="translate(64.2856 25.8462)" fill="#3F00F3"/>
<g clip-path="url(#clip17_2513_6065)">
<rect width="4.28571" height="4.30769" transform="translate(42.8572 25.8462)" fill="#5B2BE5"/>
<g clip-path="url(#clip18_2513_6065)">
<rect width="5" height="5" transform="translate(42.8572 25.8462)" fill="#5B2BE5"/>
<rect width="5" height="5" transform="translate(42.8572 25.8462)" fill="#5B2BE5"/>
</g>
</g>
<rect width="4.28571" height="4.30769" transform="matrix(-1 0 0 1 81.4285 25.8462)" fill="#9A7DED"/>
<rect width="4.28571" height="4.30769" transform="matrix(-1 0 0 1 72.8572 25.8462)" fill="#3F00F3"/>
<g clip-path="url(#clip19_2513_6065)">
<rect width="4.28571" height="4.30769" transform="matrix(-1 0 0 1 77.1428 25.8462)" fill="#5B2BE5"/>
<g clip-path="url(#clip20_2513_6065)">
<rect width="5" height="5" transform="matrix(-1 0 0 1 77.1428 25.8462)" fill="#5B2BE5"/>
<rect width="5" height="5" transform="matrix(-1 0 0 1 77.1428 25.8462)" fill="#5B2BE5"/>
</g>
</g>
<rect width="4.28571" height="4.30769" transform="matrix(-1 0 0 1 102.857 38.7693)" fill="#704FF4"/>
<rect width="4.28571" height="4.30769" transform="matrix(-1 0 0 1 107.143 34.4615)" fill="#704FF4"/>
<rect width="4.28571" height="4.30769" transform="matrix(-1 0 0 1 102.857 17.2307)" fill="#704FF4"/>
<rect width="4.28571" height="4.30769" transform="matrix(-1 0 0 1 102.857 21.5385)" fill="#704FF4"/>
<rect width="4.28571" height="4.30769" transform="matrix(-1 0 0 1 102.857 25.8462)" fill="#704FF4"/>
<rect width="4.28571" height="4.30769" transform="matrix(-1 0 0 1 102.857 30.1538)" fill="#704FF4"/>
<rect width="4.28571" height="4.30769" transform="matrix(-1 0 0 1 107.143 30.1538)" fill="#3F00F3"/>
<rect width="4.28571" height="4.30769" transform="matrix(-1 0 0 1 102.857 34.4615)" fill="#8F6FF5"/>
<g clip-path="url(#clip21_2513_6065)">
<rect width="4.28571" height="4.30769" transform="matrix(-1 0 0 1 107.143 17.2307)" fill="#5B2BE5"/>
<g clip-path="url(#clip22_2513_6065)">
<rect width="5" height="5" transform="matrix(-1 0 0 1 107.143 17.2307)" fill="#5B2BE5"/>
<rect width="5" height="5" transform="matrix(-1 0 0 1 107.143 17.2307)" fill="#5B2BE5"/>
</g>
</g>
<g clip-path="url(#clip23_2513_6065)">
<rect width="4.28571" height="4.30769" transform="matrix(-1 0 0 1 107.143 25.8462)" fill="#5B2BE5"/>
<g clip-path="url(#clip24_2513_6065)">
<rect width="5" height="5" transform="matrix(-1 0 0 1 107.143 25.8462)" fill="#5B2BE5"/>
<rect width="5" height="5" transform="matrix(-1 0 0 1 107.143 25.8462)" fill="#5B2BE5"/>
</g>
</g>
<g clip-path="url(#clip25_2513_6065)">
<rect width="4.28571" height="4.30769" transform="matrix(-1 0 0 1 107.143 12.9231)" fill="#3F00F3"/>
<g clip-path="url(#clip26_2513_6065)">
<rect width="5" height="5" transform="matrix(-1 0 0 1 107.143 12.9231)" fill="#3F00F3"/>
<rect width="5" height="5" transform="matrix(-1 0 0 1 107.143 12.9231)" fill="#3F00F3"/>
</g>
</g>
<rect width="4.28571" height="4.30769" transform="matrix(-1 0 0 1 102.857 12.9231)" fill="#5B2BE5"/>
<rect width="4.28571" height="4.30769" transform="matrix(-1 0 0 1 107.143 38.7693)" fill="#8F6FF5"/>
<g clip-path="url(#clip27_2513_6065)">
<rect width="4.28571" height="4.30769" transform="matrix(-1 0 0 1 107.143 21.5385)" fill="#5B2BE5"/>
<rect width="5" height="5" transform="matrix(-1 0 0 1 107.143 21.5385)" fill="#5B2BE5"/>
</g>
<rect width="4.28571" height="4.30769" transform="translate(17.1428 38.7693)" fill="#704FF4"/>
<rect width="4.28571" height="4.30769" transform="translate(12.8572 34.4615)" fill="#704FF4"/>
<rect width="4.28571" height="4.30769" transform="translate(17.1428 17.2307)" fill="#704FF4"/>
<rect width="4.28571" height="4.30769" transform="translate(17.1428 21.5385)" fill="#704FF4"/>
<rect width="4.28571" height="4.30769" transform="translate(17.1428 25.8462)" fill="#704FF4"/>
<rect width="4.28571" height="4.30769" transform="translate(17.1428 30.1538)" fill="#704FF4"/>
<rect width="4.28571" height="4.30769" transform="translate(12.8572 30.1538)" fill="#3F00F3"/>
<rect width="4.28571" height="4.30769" transform="translate(17.1428 34.4615)" fill="#8F6FF5"/>
<g clip-path="url(#clip28_2513_6065)">
<rect width="4.28571" height="4.30769" transform="translate(12.8572 25.8462)" fill="#5B2BE5"/>
<rect width="5" height="5" transform="translate(12.8572 25.8462)" fill="#5B2BE5"/>
</g>
<rect width="4.28571" height="4.30769" transform="translate(12.8572 12.9231)" fill="#3F00F3"/>
<rect width="4.28571" height="4.30769" transform="translate(17.1428 12.9231)" fill="#5B2BE5"/>
<rect width="4.28571" height="4.30769" transform="translate(12.8572 17.2307)" fill="#5B2BE5"/>
<rect width="4.28571" height="4.30769" transform="translate(12.8572 38.7693)" fill="#8F6FF5"/>
<g clip-path="url(#clip29_2513_6065)">
<rect width="4.28571" height="4.30769" transform="translate(12.8572 21.5385)" fill="#5B2BE5"/>
<rect width="5" height="5" transform="translate(12.8572 21.5385)" fill="#5B2BE5"/>
</g>
<rect width="4.28571" height="4.30769" transform="matrix(-1 0 0 1 90 4.30774)" fill="#3F00F3"/>
<g clip-path="url(#clip30_2513_6065)">
<rect width="4.28571" height="4.30769" transform="matrix(-1 0 0 1 94.2856 4.30774)" fill="#5B2BE5"/>
<g clip-path="url(#clip31_2513_6065)">
<rect width="5" height="5" transform="matrix(-1 0 0 1 94.2856 4.30774)" fill="#5B2BE5"/>
<rect width="5" height="5" transform="matrix(-1 0 0 1 94.2856 4.30774)" fill="#5B2BE5"/>
</g>
</g>
<rect width="4.28571" height="4.30769" transform="matrix(-1 0 0 1 94.2856 8.61536)" fill="#3F00F3"/>
<rect width="4.28571" height="4.30769" transform="matrix(-1 0 0 1 94.2856 12.9231)" fill="#3F00F3"/>
<rect width="4.28571" height="4.30769" transform="matrix(-1 0 0 1 94.2856 17.2307)" fill="#3F00F3"/>
<rect width="4.28571" height="4.30769" transform="matrix(-1 0 0 1 90 21.5385)" fill="#3F00F3"/>
<rect width="4.28571" height="4.30769" transform="matrix(-1 0 0 1 90 25.8462)" fill="#3F00F3"/>
<rect width="4.28571" height="4.30769" transform="matrix(-1 0 0 1 94.2856 25.8462)" fill="#3F00F3"/>
<rect width="4.28571" height="4.30769" transform="matrix(-1 0 0 1 94.2856 21.5385)" fill="#3F00F3"/>
<rect width="4.28571" height="4.30769" transform="matrix(-1 0 0 1 90 8.61536)" fill="#704FF4"/>
<rect width="4.28571" height="4.30769" transform="matrix(-1 0 0 1 90 12.9231)" fill="#704FF4"/>
<rect width="4.28571" height="4.30769" transform="matrix(-1 0 0 1 90 17.2307)" fill="#704FF4"/>
<rect width="4.28571" height="4.30769" transform="matrix(-1 0 0 1 90 47.3846)" fill="#8F6FF5"/>
<rect width="4.28571" height="4.30769" transform="matrix(-1 0 0 1 94.2856 47.3846)" fill="#8F6FF5"/>
<rect width="4.28571" height="4.30769" transform="matrix(-1 0 0 1 94.2856 43.0769)" fill="#8F6FF5"/>
<rect width="4.28571" height="4.30769" transform="matrix(-1 0 0 1 94.2856 38.7693)" fill="#8F6FF5"/>
<rect width="4.28571" height="4.30769" transform="matrix(-1 0 0 1 90 43.0769)" fill="#704FF4"/>
<rect width="4.28571" height="4.30769" transform="matrix(-1 0 0 1 90 38.7693)" fill="#704FF4"/>
<g clip-path="url(#clip32_2513_6065)">
<rect width="4.28571" height="4.30769" transform="translate(30 30.1538)" fill="#5B2BE5"/>
<g clip-path="url(#clip33_2513_6065)">
<rect width="5" height="5" transform="translate(30 30.1538)" fill="#5B2BE5"/>
<rect width="5" height="5" transform="translate(30 30.1538)" fill="#5B2BE5"/>
</g>
</g>
<g clip-path="url(#clip34_2513_6065)">
<rect width="4.28571" height="4.30769" transform="translate(30 34.4615)" fill="#5B2BE5"/>
<g clip-path="url(#clip35_2513_6065)">
<rect width="5" height="5" transform="translate(30 34.4615)" fill="#5B2BE5"/>
<rect width="5" height="5" transform="translate(30 34.4615)" fill="#5B2BE5"/>
</g>
</g>
<g clip-path="url(#clip36_2513_6065)">
<rect width="4.28571" height="4.30769" transform="translate(25.7144 34.4615)" fill="#5B2BE5"/>
<g clip-path="url(#clip37_2513_6065)">
<rect width="5" height="5" transform="translate(25.7144 34.4615)" fill="#5B2BE5"/>
<rect width="5" height="5" transform="translate(25.7144 34.4615)" fill="#5B2BE5"/>
</g>
</g>
<g clip-path="url(#clip38_2513_6065)">
<rect width="4.28571" height="4.30769" transform="translate(25.7144 30.1538)" fill="#5B2BE5"/>
<g clip-path="url(#clip39_2513_6065)">
<rect width="5" height="5" transform="translate(25.7144 30.1538)" fill="#5B2BE5"/>
<rect width="5" height="5" transform="translate(25.7144 30.1538)" fill="#5B2BE5"/>
</g>
</g>
<rect width="4.28571" height="4.30769" transform="translate(30 4.30774)" fill="#3F00F3"/>
<g clip-path="url(#clip40_2513_6065)">
<rect width="4.28571" height="4.30769" transform="translate(25.7144 4.30774)" fill="#5B2BE5"/>
<g clip-path="url(#clip41_2513_6065)">
<rect width="5" height="5" transform="translate(25.7144 4.30774)" fill="#5B2BE5"/>
<rect width="5" height="5" transform="translate(25.7144 4.30774)" fill="#5B2BE5"/>
</g>
</g>
<rect width="4.28571" height="4.30769" transform="translate(25.7144 8.61536)" fill="#3F00F3"/>
<rect width="4.28571" height="4.30769" transform="translate(25.7144 12.9231)" fill="#3F00F3"/>
<rect width="4.28571" height="4.30769" transform="translate(25.7144 17.2307)" fill="#3F00F3"/>
<rect width="4.28571" height="4.30769" transform="translate(30 21.5385)" fill="#3F00F3"/>
<rect width="4.28571" height="4.30769" transform="translate(30 25.8462)" fill="#3F00F3"/>
<rect width="4.28571" height="4.30769" transform="translate(25.7144 25.8462)" fill="#3F00F3"/>
<rect width="4.28571" height="4.30769" transform="translate(25.7144 21.5385)" fill="#3F00F3"/>
<rect width="4.28571" height="4.30769" transform="translate(30 8.61536)" fill="#704FF4"/>
<rect width="4.28571" height="4.30769" transform="translate(30 12.9231)" fill="#704FF4"/>
<rect width="4.28571" height="4.30769" transform="translate(30 17.2307)" fill="#704FF4"/>
<rect width="4.28571" height="4.30769" transform="translate(30 47.3846)" fill="#8F6FF5"/>
<rect width="4.28571" height="4.30769" transform="translate(25.7144 47.3846)" fill="#8F6FF5"/>
<rect width="4.28571" height="4.30769" transform="translate(25.7144 43.0769)" fill="#8F6FF5"/>
<rect width="4.28571" height="4.30769" transform="translate(25.7144 38.7693)" fill="#8F6FF5"/>
<rect width="4.28571" height="4.30769" transform="translate(30 43.0769)" fill="#704FF4"/>
<rect width="4.28571" height="4.30769" transform="translate(30 38.7693)" fill="#704FF4"/>
<defs>
<clipPath id="clip0_2513_6065">
<rect width="4.28571" height="4.30769" fill="white" transform="translate(81.4285 30.1538)"/>
</clipPath>
<clipPath id="clip1_2513_6065">
<rect width="4.28571" height="4.30769" fill="white" transform="translate(81.4285 25.8462)"/>
</clipPath>
<clipPath id="clip2_2513_6065">
<rect width="4.28571" height="4.30769" fill="white" transform="matrix(-1 0 0 1 115.714 25.8462)"/>
</clipPath>
<clipPath id="clip3_2513_6065">
<rect width="5" height="5" fill="white" transform="matrix(-1 0 0 1 115.714 25.8462)"/>
</clipPath>
<clipPath id="clip4_2513_6065">
<rect width="4.28571" height="4.30769" fill="white" transform="matrix(-1 0 0 1 115.714 21.5385)"/>
</clipPath>
<clipPath id="clip5_2513_6065">
<rect width="5" height="5" fill="white" transform="matrix(-1 0 0 1 115.714 21.5385)"/>
</clipPath>
<clipPath id="clip6_2513_6065">
<rect width="4.28571" height="4.30769" fill="white" transform="matrix(-1 0 0 1 8.57153 25.8462)"/>
</clipPath>
<clipPath id="clip7_2513_6065">
<rect width="4.28571" height="4.30769" fill="white" transform="matrix(-1 0 0 1 8.57153 21.5385)"/>
</clipPath>
<clipPath id="clip8_2513_6065">
<rect width="5" height="5" fill="white" transform="matrix(-1 0 0 1 8.57153 21.5385)"/>
</clipPath>
<clipPath id="clip9_2513_6065">
<rect width="4.28571" height="4.30769" fill="white" transform="matrix(-1 0 0 1 90 30.1538)"/>
</clipPath>
<clipPath id="clip10_2513_6065">
<rect width="5" height="5" fill="white" transform="matrix(-1 0 0 1 90 30.1538)"/>
</clipPath>
<clipPath id="clip11_2513_6065">
<rect width="4.28571" height="4.30769" fill="white" transform="matrix(-1 0 0 1 90 34.4615)"/>
</clipPath>
<clipPath id="clip12_2513_6065">
<rect width="5" height="5" fill="white" transform="matrix(-1 0 0 1 90 34.4615)"/>
</clipPath>
<clipPath id="clip13_2513_6065">
<rect width="4.28571" height="4.30769" fill="white" transform="matrix(-1 0 0 1 94.2856 34.4615)"/>
</clipPath>
<clipPath id="clip14_2513_6065">
<rect width="5" height="5" fill="white" transform="matrix(-1 0 0 1 94.2856 34.4615)"/>
</clipPath>
<clipPath id="clip15_2513_6065">
<rect width="4.28571" height="4.30769" fill="white" transform="matrix(-1 0 0 1 94.2856 30.1538)"/>
</clipPath>
<clipPath id="clip16_2513_6065">
<rect width="5" height="5" fill="white" transform="matrix(-1 0 0 1 94.2856 30.1538)"/>
</clipPath>
<clipPath id="clip17_2513_6065">
<rect width="4.28571" height="4.30769" fill="white" transform="translate(42.8572 25.8462)"/>
</clipPath>
<clipPath id="clip18_2513_6065">
<rect width="5" height="5" fill="white" transform="translate(42.8572 25.8462)"/>
</clipPath>
<clipPath id="clip19_2513_6065">
<rect width="4.28571" height="4.30769" fill="white" transform="matrix(-1 0 0 1 77.1428 25.8462)"/>
</clipPath>
<clipPath id="clip20_2513_6065">
<rect width="5" height="5" fill="white" transform="matrix(-1 0 0 1 77.1428 25.8462)"/>
</clipPath>
<clipPath id="clip21_2513_6065">
<rect width="4.28571" height="4.30769" fill="white" transform="matrix(-1 0 0 1 107.143 17.2307)"/>
</clipPath>
<clipPath id="clip22_2513_6065">
<rect width="5" height="5" fill="white" transform="matrix(-1 0 0 1 107.143 17.2307)"/>
</clipPath>
<clipPath id="clip23_2513_6065">
<rect width="4.28571" height="4.30769" fill="white" transform="matrix(-1 0 0 1 107.143 25.8462)"/>
</clipPath>
<clipPath id="clip24_2513_6065">
<rect width="5" height="5" fill="white" transform="matrix(-1 0 0 1 107.143 25.8462)"/>
</clipPath>
<clipPath id="clip25_2513_6065">
<rect width="4.28571" height="4.30769" fill="white" transform="matrix(-1 0 0 1 107.143 12.9231)"/>
</clipPath>
<clipPath id="clip26_2513_6065">
<rect width="5" height="5" fill="white" transform="matrix(-1 0 0 1 107.143 12.9231)"/>
</clipPath>
<clipPath id="clip27_2513_6065">
<rect width="4.28571" height="4.30769" fill="white" transform="matrix(-1 0 0 1 107.143 21.5385)"/>
</clipPath>
<clipPath id="clip28_2513_6065">
<rect width="4.28571" height="4.30769" fill="white" transform="translate(12.8572 25.8462)"/>
</clipPath>
<clipPath id="clip29_2513_6065">
<rect width="4.28571" height="4.30769" fill="white" transform="translate(12.8572 21.5385)"/>
</clipPath>
<clipPath id="clip30_2513_6065">
<rect width="4.28571" height="4.30769" fill="white" transform="matrix(-1 0 0 1 94.2856 4.30774)"/>
</clipPath>
<clipPath id="clip31_2513_6065">
<rect width="5" height="5" fill="white" transform="matrix(-1 0 0 1 94.2856 4.30774)"/>
</clipPath>
<clipPath id="clip32_2513_6065">
<rect width="4.28571" height="4.30769" fill="white" transform="translate(30 30.1538)"/>
</clipPath>
<clipPath id="clip33_2513_6065">
<rect width="5" height="5" fill="white" transform="translate(30 30.1538)"/>
</clipPath>
<clipPath id="clip34_2513_6065">
<rect width="4.28571" height="4.30769" fill="white" transform="translate(30 34.4615)"/>
</clipPath>
<clipPath id="clip35_2513_6065">
<rect width="5" height="5" fill="white" transform="translate(30 34.4615)"/>
</clipPath>
<clipPath id="clip36_2513_6065">
<rect width="4.28571" height="4.30769" fill="white" transform="translate(25.7144 34.4615)"/>
</clipPath>
<clipPath id="clip37_2513_6065">
<rect width="5" height="5" fill="white" transform="translate(25.7144 34.4615)"/>
</clipPath>
<clipPath id="clip38_2513_6065">
<rect width="4.28571" height="4.30769" fill="white" transform="translate(25.7144 30.1538)"/>
</clipPath>
<clipPath id="clip39_2513_6065">
<rect width="5" height="5" fill="white" transform="translate(25.7144 30.1538)"/>
</clipPath>
<clipPath id="clip40_2513_6065">
<rect width="4.28571" height="4.30769" fill="white" transform="translate(25.7144 4.30774)"/>
</clipPath>
<clipPath id="clip41_2513_6065">
<rect width="5" height="5" fill="white" transform="translate(25.7144 4.30774)"/>
</clipPath>
</defs>
</svg>
