<svg width="980" height="455" viewBox="0 0 980 455" fill="none" xmlns="http://www.w3.org/2000/svg">
<rect width="35" height="35" transform="translate(455 175)" fill="white"/>
<rect width="35" height="35" transform="translate(420 175)" fill="white"/>
<rect width="35" height="35" transform="translate(385 175)" fill="white"/>
<rect width="35" height="35" transform="translate(350 175)" fill="white"/>
<rect width="35" height="35" transform="translate(315 175)" fill="white"/>
<rect width="35" height="35" transform="translate(630 175)" fill="white"/>
<rect width="35" height="35" transform="translate(665 245)" fill="white"/>
<rect width="5" height="5" transform="translate(665 255)" fill="white"/>
<rect width="5" height="5" transform="translate(665 250)" fill="white"/>
<rect width="5" height="5" transform="translate(665 245)" fill="white"/>
<rect width="35" height="35" transform="translate(665 210)" fill="white"/>
<rect width="5" height="5" transform="translate(665 220)" fill="white"/>
<rect width="5" height="5" transform="translate(665 215)" fill="white"/>
<rect width="5" height="5" transform="translate(665 210)" fill="white"/>
<rect width="35" height="35" transform="translate(665 385)" fill="white"/>
<rect width="35" height="35" transform="translate(665 350)" fill="white"/>
<rect width="35" height="35" transform="translate(665 315)" fill="white"/>
<rect width="35" height="35" transform="translate(665 280)" fill="white"/>
<rect width="35" height="35" transform="translate(805 70)" fill="white"/>
<rect width="35" height="35" transform="translate(840 70)" fill="white"/>
<rect width="35" height="35" transform="translate(875 175)" fill="white"/>
<rect width="35" height="35" transform="translate(875 140)" fill="white"/>
<rect width="35" height="35" transform="translate(875 105)" fill="white"/>
<rect width="35" height="35" transform="translate(875 175)" fill="white"/>
<rect width="35" height="35" transform="translate(875 140)" fill="white"/>
<rect width="35" height="35" transform="translate(875 105)" fill="white"/>
<rect width="35" height="35" transform="translate(875 280)" fill="white"/>
<rect width="35" height="35" transform="translate(875 245)" fill="white"/>
<rect width="35" height="35" transform="translate(875 210)" fill="white"/>
<rect width="35" height="35" transform="translate(875 280)" fill="white"/>
<rect width="35" height="35" transform="translate(875 245)" fill="white"/>
<rect width="35" height="35" transform="translate(875 210)" fill="white"/>
<rect width="35" height="35" transform="translate(910 140)" fill="white"/>
<rect width="35" height="35" transform="translate(945 175)" fill="white"/>
<rect width="35" height="35" transform="translate(945 210)" fill="white"/>
<rect width="35" height="35" transform="translate(945 245)" fill="white"/>
<rect width="35" height="35" transform="matrix(-1 0 0 1 945 210)" fill="#5B2BE5"/>
<g clip-path="url(#clip0_2469_6065)">
<rect width="5" height="5" transform="matrix(-1 0 0 1 945 210)" fill="#5B2BE5"/>
<rect width="5" height="5" transform="matrix(-1 0 0 1 945 210)" fill="#5B2BE5"/>
</g>
<rect width="35" height="35" transform="matrix(-1 0 0 1 945 175)" fill="#3F00F3"/>
<g clip-path="url(#clip1_2469_6065)">
<rect width="5" height="5" transform="matrix(-1 0 0 1 945 175)" fill="#3F00F3"/>
<rect width="5" height="5" transform="matrix(-1 0 0 1 945 175)" fill="#3F00F3"/>
</g>
<rect width="35" height="35" transform="translate(805 350)" fill="white"/>
<rect width="35" height="35" transform="translate(840 350)" fill="white"/>
<rect width="35" height="35" transform="translate(875 315)" fill="white"/>
<rect width="35" height="35" transform="translate(910 280)" fill="white"/>
<rect width="35" height="35" transform="matrix(-1 0 0 1 945 245)" fill="#8F6FF5"/>
<rect width="35" height="35" transform="matrix(-1 0 0 1 70 210)" fill="#5B2BE5"/>
<rect width="5" height="5" transform="matrix(-1 0 0 1 70 210)" fill="#5B2BE5"/>
<rect width="35" height="35" transform="matrix(-1 0 0 1 70 175)" fill="#3F00F3"/>
<g clip-path="url(#clip2_2469_6065)">
<rect width="5" height="5" transform="matrix(-1 0 0 1 70 175)" fill="#3F00F3"/>
<rect width="5" height="5" transform="matrix(-1 0 0 1 70 175)" fill="#3F00F3"/>
</g>
<rect width="35" height="35" transform="matrix(-1 0 0 1 70 245)" fill="#8F6FF5"/>
<rect width="35" height="35" transform="matrix(-1 0 0 1 70 140)" fill="white"/>
<rect width="35" height="35" transform="matrix(-1 0 0 1 35 175)" fill="white"/>
<rect width="35" height="35" transform="matrix(-1 0 0 1 35 210)" fill="white"/>
<rect width="35" height="35" transform="matrix(-1 0 0 1 35 245)" fill="white"/>
<rect width="35" height="35" transform="matrix(-1 0 0 1 70 280)" fill="white"/>
<rect width="35" height="35" transform="matrix(-1 0 0 1 175 70)" fill="white"/>
<rect width="35" height="35" transform="matrix(-1 0 0 1 140 70)" fill="white"/>
<rect width="35" height="35" transform="matrix(-1 0 0 1 105 105)" fill="white"/>
<rect width="35" height="35" transform="matrix(-1 0 0 1 105 140)" fill="white"/>
<rect width="35" height="35" transform="matrix(-1 0 0 1 105 175)" fill="white"/>
<rect width="35" height="35" transform="matrix(-1 0 0 1 105 210)" fill="white"/>
<rect width="35" height="35" transform="matrix(-1 0 0 1 105 245)" fill="white"/>
<rect width="35" height="35" transform="matrix(-1 0 0 1 105 280)" fill="white"/>
<rect width="35" height="35" transform="matrix(-1 0 0 1 175 350)" fill="white"/>
<rect width="35" height="35" transform="matrix(-1 0 0 1 140 350)" fill="white"/>
<rect width="35" height="35" transform="matrix(-1 0 0 1 105 315)" fill="white"/>
<rect width="35" height="35" transform="translate(175 140)" fill="white"/>
<rect width="35" height="35" transform="translate(175 105)" fill="white"/>
<rect width="35" height="35" transform="translate(175 70)" fill="white"/>
<rect width="35" height="35" transform="translate(175 245)" fill="white"/>
<rect width="35" height="35" transform="translate(175 210)" fill="white"/>
<rect width="35" height="35" transform="translate(175 175)" fill="white"/>
<rect width="35" height="35" transform="translate(175 35)" fill="white"/>
<rect width="35" height="35" transform="translate(175 385)" fill="white"/>
<rect width="35" height="35" transform="translate(210 420)" fill="white"/>
<rect width="35" height="35" transform="translate(210 420)" fill="white"/>
<rect width="35" height="35" transform="translate(245 420)" fill="white"/>
<rect width="35" height="35" transform="translate(700)" fill="white"/>
<rect width="35" height="35" transform="translate(700)" fill="white"/>
<rect width="35" height="35" transform="translate(735)" fill="white"/>
<rect width="35" height="35" transform="translate(700 420)" fill="white"/>
<rect width="35" height="35" transform="translate(700 420)" fill="white"/>
<rect width="35" height="35" transform="translate(735 420)" fill="white"/>
<rect width="35" height="35" transform="translate(245)" fill="white"/>
<rect width="35" height="35" transform="translate(217)" fill="white"/>
<rect width="35" height="35" transform="translate(175 350)" fill="white"/>
<rect width="35" height="35" transform="translate(175 315)" fill="white"/>
<rect width="35" height="35" transform="translate(175 280)" fill="white"/>
<rect width="35" height="35" transform="translate(280 140)" fill="white"/>
<rect width="35" height="35" transform="translate(280 175)" fill="white"/>
<rect width="35" height="35" transform="translate(280 210)" fill="white"/>
<rect width="35" height="35" transform="translate(280 105)" fill="white"/>
<rect width="35" height="35" transform="translate(280 70)" fill="white"/>
<rect width="35" height="35" transform="translate(280 35)" fill="white"/>
<rect width="35" height="35" transform="translate(280 385)" fill="white"/>
<rect width="35" height="35" transform="translate(280 350)" fill="white"/>
<rect width="35" height="35" transform="translate(280 315)" fill="white"/>
<rect width="35" height="35" transform="translate(280 280)" fill="white"/>
<rect width="35" height="35" transform="translate(280 245)" fill="white"/>
<rect width="35" height="35" transform="translate(665 140)" fill="white"/>
<rect width="35" height="35" transform="translate(665 175)" fill="white"/>
<rect width="35" height="35" transform="translate(665 210)" fill="white"/>
<rect width="35" height="35" transform="translate(665 105)" fill="white"/>
<rect width="35" height="35" transform="translate(665 70)" fill="white"/>
<rect width="35" height="35" transform="translate(665 35)" fill="white"/>
<rect width="35" height="35" transform="translate(665 385)" fill="white"/>
<rect width="35" height="35" transform="translate(665 350)" fill="white"/>
<rect width="35" height="35" transform="translate(665 315)" fill="white"/>
<rect width="35" height="35" transform="translate(665 280)" fill="white"/>
<rect width="35" height="35" transform="translate(665 245)" fill="white"/>
<rect width="35" height="35" transform="translate(770 140)" fill="white"/>
<rect width="35" height="35" transform="translate(770 175)" fill="white"/>
<rect width="35" height="35" transform="translate(770 210)" fill="white"/>
<rect width="35" height="35" transform="translate(770 105)" fill="white"/>
<rect width="35" height="35" transform="translate(770 70)" fill="white"/>
<rect width="35" height="35" transform="translate(770 35)" fill="white"/>
<rect width="35" height="35" transform="translate(770 385)" fill="white"/>
<rect width="35" height="35" transform="translate(770 350)" fill="white"/>
<rect width="35" height="35" transform="translate(770 315)" fill="white"/>
<rect width="35" height="35" transform="translate(770 280)" fill="white"/>
<rect width="35" height="35" transform="translate(770 245)" fill="white"/>
<rect width="35" height="35" transform="matrix(-1 0 0 1 735 245)" fill="#5B2BE5"/>
<g clip-path="url(#clip3_2469_6065)">
<rect width="5" height="5" transform="matrix(-1 0 0 1 735 245)" fill="#5B2BE5"/>
<rect width="5" height="5" transform="matrix(-1 0 0 1 735 245)" fill="#5B2BE5"/>
</g>
<rect width="35" height="35" transform="matrix(-1 0 0 1 735 280)" fill="#5B2BE5"/>
<g clip-path="url(#clip4_2469_6065)">
<rect width="5" height="5" transform="matrix(-1 0 0 1 735 280)" fill="#5B2BE5"/>
<rect width="5" height="5" transform="matrix(-1 0 0 1 735 280)" fill="#5B2BE5"/>
</g>
<rect width="35" height="35" transform="matrix(-1 0 0 1 770 280)" fill="#5B2BE5"/>
<g clip-path="url(#clip5_2469_6065)">
<rect width="5" height="5" transform="matrix(-1 0 0 1 770 280)" fill="#5B2BE5"/>
<rect width="5" height="5" transform="matrix(-1 0 0 1 770 280)" fill="#5B2BE5"/>
</g>
<rect width="35" height="35" transform="matrix(-1 0 0 1 770 245)" fill="#5B2BE5"/>
<g clip-path="url(#clip6_2469_6065)">
<rect width="5" height="5" transform="matrix(-1 0 0 1 770 245)" fill="#5B2BE5"/>
<rect width="5" height="5" transform="matrix(-1 0 0 1 770 245)" fill="#5B2BE5"/>
</g>
<rect width="35" height="35" transform="translate(595 175)" fill="white"/>
<rect width="35" height="35" transform="translate(560 175)" fill="white"/>
<rect width="35" height="35" transform="translate(525 175)" fill="white"/>
<rect width="35" height="35" transform="translate(490 175)" fill="white"/>
<rect width="35" height="35" transform="translate(455 245)" fill="white"/>
<rect width="35" height="35" transform="translate(420 245)" fill="white"/>
<rect width="35" height="35" transform="translate(385 245)" fill="white"/>
<rect width="35" height="35" transform="translate(350 245)" fill="white"/>
<rect width="35" height="35" transform="translate(315 210)" fill="#9A7DED"/>
<rect width="35" height="35" transform="translate(315 245)" fill="white"/>
<rect width="35" height="35" transform="translate(630 245)" fill="white"/>
<rect width="35" height="35" transform="translate(595 245)" fill="white"/>
<rect width="35" height="35" transform="translate(560 245)" fill="white"/>
<rect width="35" height="35" transform="translate(525 245)" fill="white"/>
<rect width="35" height="35" transform="translate(490 245)" fill="white"/>
<rect width="35" height="35" transform="translate(385 210)" fill="#3F00F3"/>
<rect width="35" height="35" transform="translate(420 210)" fill="#3F00F3"/>
<rect width="35" height="35" transform="translate(455 210)" fill="#3F00F3"/>
<rect width="35" height="35" transform="translate(490 210)" fill="#3F00F3"/>
<rect width="35" height="35" transform="translate(525 210)" fill="#3F00F3"/>
<rect width="35" height="35" transform="translate(350 210)" fill="#5B2BE5"/>
<g clip-path="url(#clip7_2469_6065)">
<rect width="5" height="5" transform="translate(350 210)" fill="#5B2BE5"/>
<rect width="5" height="5" transform="translate(350 210)" fill="#5B2BE5"/>
</g>
<rect width="35" height="35" transform="matrix(-1 0 0 1 665 210)" fill="#9A7DED"/>
<rect width="35" height="35" transform="matrix(-1 0 0 1 595 210)" fill="#3F00F3"/>
<rect width="35" height="35" transform="matrix(-1 0 0 1 630 210)" fill="#5B2BE5"/>
<g clip-path="url(#clip8_2469_6065)">
<rect width="5" height="5" transform="matrix(-1 0 0 1 630 210)" fill="#5B2BE5"/>
<rect width="5" height="5" transform="matrix(-1 0 0 1 630 210)" fill="#5B2BE5"/>
</g>
<rect width="35" height="35" transform="matrix(-1 0 0 1 840 315)" fill="#704FF4"/>
<rect width="35" height="35" transform="matrix(-1 0 0 1 875 280)" fill="#704FF4"/>
<rect width="35" height="35" transform="matrix(-1 0 0 1 840 140)" fill="#704FF4"/>
<rect width="35" height="35" transform="matrix(-1 0 0 1 840 175)" fill="#704FF4"/>
<rect width="35" height="35" transform="matrix(-1 0 0 1 840 210)" fill="#704FF4"/>
<rect width="35" height="35" transform="matrix(-1 0 0 1 840 245)" fill="#704FF4"/>
<rect width="35" height="35" transform="matrix(-1 0 0 1 875 245)" fill="#3F00F3"/>
<rect width="35" height="35" transform="matrix(-1 0 0 1 840 280)" fill="#8F6FF5"/>
<rect width="35" height="35" transform="matrix(-1 0 0 1 875 140)" fill="#5B2BE5"/>
<g clip-path="url(#clip9_2469_6065)">
<rect width="5" height="5" transform="matrix(-1 0 0 1 875 140)" fill="#5B2BE5"/>
<rect width="5" height="5" transform="matrix(-1 0 0 1 875 140)" fill="#5B2BE5"/>
</g>
<rect width="35" height="35" transform="matrix(-1 0 0 1 875 210)" fill="#5B2BE5"/>
<g clip-path="url(#clip10_2469_6065)">
<rect width="5" height="5" transform="matrix(-1 0 0 1 875 210)" fill="#5B2BE5"/>
<rect width="5" height="5" transform="matrix(-1 0 0 1 875 210)" fill="#5B2BE5"/>
</g>
<rect width="35" height="35" transform="matrix(-1 0 0 1 875 105)" fill="#3F00F3"/>
<g clip-path="url(#clip11_2469_6065)">
<rect width="5" height="5" transform="matrix(-1 0 0 1 875 105)" fill="#3F00F3"/>
<rect width="5" height="5" transform="matrix(-1 0 0 1 875 105)" fill="#3F00F3"/>
</g>
<rect width="35" height="35" transform="matrix(-1 0 0 1 840 105)" fill="#5B2BE5"/>
<rect width="35" height="35" transform="matrix(-1 0 0 1 875 315)" fill="#8F6FF5"/>
<rect width="35" height="35" transform="matrix(-1 0 0 1 875 175)" fill="#5B2BE5"/>
<rect width="5" height="5" transform="matrix(-1 0 0 1 875 175)" fill="#5B2BE5"/>
<rect width="35" height="35" transform="translate(140 315)" fill="#704FF4"/>
<rect width="35" height="35" transform="translate(105 280)" fill="#704FF4"/>
<rect width="35" height="35" transform="translate(140 140)" fill="#704FF4"/>
<rect width="35" height="35" transform="translate(140 175)" fill="#704FF4"/>
<rect width="35" height="35" transform="translate(140 210)" fill="#704FF4"/>
<rect width="35" height="35" transform="translate(140 245)" fill="#704FF4"/>
<rect width="35" height="35" transform="translate(105 245)" fill="#3F00F3"/>
<rect width="35" height="35" transform="translate(140 280)" fill="#8F6FF5"/>
<rect width="35" height="35" transform="translate(105 210)" fill="#5B2BE5"/>
<rect width="5" height="5" transform="translate(105 210)" fill="#5B2BE5"/>
<rect width="35" height="35" transform="translate(105 105)" fill="#3F00F3"/>
<rect width="35" height="35" transform="translate(140 105)" fill="#5B2BE5"/>
<rect width="35" height="35" transform="translate(105 140)" fill="#5B2BE5"/>
<rect width="35" height="35" transform="translate(105 315)" fill="#8F6FF5"/>
<rect width="35" height="35" transform="translate(105 175)" fill="#5B2BE5"/>
<rect width="5" height="5" transform="translate(105 175)" fill="#5B2BE5"/>
<rect width="35" height="35" transform="matrix(-1 0 0 1 735 35)" fill="#3F00F3"/>
<rect width="35" height="35" transform="matrix(-1 0 0 1 770 35)" fill="#5B2BE5"/>
<g clip-path="url(#clip12_2469_6065)">
<rect width="5" height="5" transform="matrix(-1 0 0 1 770 35)" fill="#5B2BE5"/>
<rect width="5" height="5" transform="matrix(-1 0 0 1 770 35)" fill="#5B2BE5"/>
</g>
<rect width="35" height="35" transform="matrix(-1 0 0 1 770 70)" fill="#3F00F3"/>
<rect width="35" height="35" transform="matrix(-1 0 0 1 770 105)" fill="#3F00F3"/>
<rect width="35" height="35" transform="matrix(-1 0 0 1 770 140)" fill="#3F00F3"/>
<rect width="35" height="35" transform="matrix(-1 0 0 1 735 175)" fill="#3F00F3"/>
<rect width="35" height="35" transform="matrix(-1 0 0 1 735 210)" fill="#3F00F3"/>
<rect width="35" height="35" transform="matrix(-1 0 0 1 770 210)" fill="#3F00F3"/>
<rect width="35" height="35" transform="matrix(-1 0 0 1 770 175)" fill="#3F00F3"/>
<rect width="35" height="35" transform="matrix(-1 0 0 1 735 70)" fill="#704FF4"/>
<rect width="35" height="35" transform="matrix(-1 0 0 1 735 105)" fill="#704FF4"/>
<rect width="35" height="35" transform="matrix(-1 0 0 1 735 140)" fill="#704FF4"/>
<rect width="35" height="35" transform="matrix(-1 0 0 1 735 385)" fill="#8F6FF5"/>
<rect width="35" height="35" transform="matrix(-1 0 0 1 770 385)" fill="#8F6FF5"/>
<rect width="35" height="35" transform="matrix(-1 0 0 1 770 350)" fill="#8F6FF5"/>
<rect width="35" height="35" transform="matrix(-1 0 0 1 770 315)" fill="#8F6FF5"/>
<rect width="35" height="35" transform="matrix(-1 0 0 1 735 350)" fill="#704FF4"/>
<rect width="35" height="35" transform="matrix(-1 0 0 1 735 315)" fill="#704FF4"/>
<rect width="35" height="35" transform="translate(245 245)" fill="#5B2BE5"/>
<g clip-path="url(#clip13_2469_6065)">
<rect width="5" height="5" transform="translate(245 245)" fill="#5B2BE5"/>
<rect width="5" height="5" transform="translate(245 245)" fill="#5B2BE5"/>
</g>
<rect width="35" height="35" transform="translate(245 280)" fill="#5B2BE5"/>
<g clip-path="url(#clip14_2469_6065)">
<rect width="5" height="5" transform="translate(245 280)" fill="#5B2BE5"/>
<rect width="5" height="5" transform="translate(245 280)" fill="#5B2BE5"/>
</g>
<rect width="35" height="35" transform="translate(210 280)" fill="#5B2BE5"/>
<g clip-path="url(#clip15_2469_6065)">
<rect width="5" height="5" transform="translate(210 280)" fill="#5B2BE5"/>
<rect width="5" height="5" transform="translate(210 280)" fill="#5B2BE5"/>
</g>
<rect width="35" height="35" transform="translate(210 245)" fill="#5B2BE5"/>
<g clip-path="url(#clip16_2469_6065)">
<rect width="5" height="5" transform="translate(210 245)" fill="#5B2BE5"/>
<rect width="5" height="5" transform="translate(210 245)" fill="#5B2BE5"/>
</g>
<rect width="35" height="35" transform="translate(245 35)" fill="#3F00F3"/>
<rect width="35" height="35" transform="translate(210 35)" fill="#5B2BE5"/>
<g clip-path="url(#clip17_2469_6065)">
<rect width="5" height="5" transform="translate(210 35)" fill="#5B2BE5"/>
<rect width="5" height="5" transform="translate(210 35)" fill="#5B2BE5"/>
</g>
<rect width="35" height="35" transform="translate(210 70)" fill="#3F00F3"/>
<rect width="35" height="35" transform="translate(210 105)" fill="#3F00F3"/>
<rect width="35" height="35" transform="translate(210 140)" fill="#3F00F3"/>
<rect width="35" height="35" transform="translate(245 175)" fill="#3F00F3"/>
<rect width="35" height="35" transform="translate(245 210)" fill="#3F00F3"/>
<rect width="35" height="35" transform="translate(210 210)" fill="#3F00F3"/>
<rect width="35" height="35" transform="translate(210 175)" fill="#3F00F3"/>
<rect width="35" height="35" transform="translate(245 70)" fill="#704FF4"/>
<rect width="35" height="35" transform="translate(245 105)" fill="#704FF4"/>
<rect width="35" height="35" transform="translate(245 140)" fill="#704FF4"/>
<rect width="35" height="35" transform="translate(245 385)" fill="#8F6FF5"/>
<rect width="35" height="35" transform="translate(210 385)" fill="#8F6FF5"/>
<rect width="35" height="35" transform="translate(210 350)" fill="#8F6FF5"/>
<rect width="35" height="35" transform="translate(210 315)" fill="#8F6FF5"/>
<rect width="35" height="35" transform="translate(245 350)" fill="#704FF4"/>
<rect width="35" height="35" transform="translate(245 315)" fill="#704FF4"/>
<defs>
<clipPath id="clip0_2469_6065">
<rect width="5" height="5" fill="white" transform="matrix(-1 0 0 1 945 210)"/>
</clipPath>
<clipPath id="clip1_2469_6065">
<rect width="5" height="5" fill="white" transform="matrix(-1 0 0 1 945 175)"/>
</clipPath>
<clipPath id="clip2_2469_6065">
<rect width="5" height="5" fill="white" transform="matrix(-1 0 0 1 70 175)"/>
</clipPath>
<clipPath id="clip3_2469_6065">
<rect width="5" height="5" fill="white" transform="matrix(-1 0 0 1 735 245)"/>
</clipPath>
<clipPath id="clip4_2469_6065">
<rect width="5" height="5" fill="white" transform="matrix(-1 0 0 1 735 280)"/>
</clipPath>
<clipPath id="clip5_2469_6065">
<rect width="5" height="5" fill="white" transform="matrix(-1 0 0 1 770 280)"/>
</clipPath>
<clipPath id="clip6_2469_6065">
<rect width="5" height="5" fill="white" transform="matrix(-1 0 0 1 770 245)"/>
</clipPath>
<clipPath id="clip7_2469_6065">
<rect width="5" height="5" fill="white" transform="translate(350 210)"/>
</clipPath>
<clipPath id="clip8_2469_6065">
<rect width="5" height="5" fill="white" transform="matrix(-1 0 0 1 630 210)"/>
</clipPath>
<clipPath id="clip9_2469_6065">
<rect width="5" height="5" fill="white" transform="matrix(-1 0 0 1 875 140)"/>
</clipPath>
<clipPath id="clip10_2469_6065">
<rect width="5" height="5" fill="white" transform="matrix(-1 0 0 1 875 210)"/>
</clipPath>
<clipPath id="clip11_2469_6065">
<rect width="5" height="5" fill="white" transform="matrix(-1 0 0 1 875 105)"/>
</clipPath>
<clipPath id="clip12_2469_6065">
<rect width="5" height="5" fill="white" transform="matrix(-1 0 0 1 770 35)"/>
</clipPath>
<clipPath id="clip13_2469_6065">
<rect width="5" height="5" fill="white" transform="translate(245 245)"/>
</clipPath>
<clipPath id="clip14_2469_6065">
<rect width="5" height="5" fill="white" transform="translate(245 280)"/>
</clipPath>
<clipPath id="clip15_2469_6065">
<rect width="5" height="5" fill="white" transform="translate(210 280)"/>
</clipPath>
<clipPath id="clip16_2469_6065">
<rect width="5" height="5" fill="white" transform="translate(210 245)"/>
</clipPath>
<clipPath id="clip17_2469_6065">
<rect width="5" height="5" fill="white" transform="translate(210 35)"/>
</clipPath>
</defs>
</svg>
